<?xml version="1.0" encoding="UTF-8" ?>
<!DOCTYPE svg PUBLIC "-//W3C//DTD SVG 1.1//EN" "http://www.w3.org/Graphics/SVG/1.1/DTD/svg11.dtd">
<svg width="128pt" height="128pt" viewBox="0 0 128 128" version="1.1" xmlns="http://www.w3.org/2000/svg">
<g id="#18acd9ff">
<path fill="#18acd9" opacity="1.00" d=" M 36.39 37.51 C 53.20 36.92 70.08 37.47 86.92 37.24 C 89.62 37.30 92.89 36.91 94.84 39.22 C 96.21 40.42 95.97 42.37 96.04 44.00 C 95.93 58.03 96.07 72.05 95.97 86.08 C 96.14 89.14 92.86 91.13 90.08 90.97 C 72.68 91.00 55.28 91.03 37.88 90.96 C 34.72 91.09 31.74 88.33 32.01 85.09 C 32.00 71.03 31.96 56.97 32.03 42.91 C 31.95 40.37 33.91 38.00 36.39 37.51 M 39.25 43.40 C 37.64 43.64 37.91 45.76 37.77 46.94 C 37.88 54.99 37.60 63.05 37.91 71.09 C 37.82 73.35 40.52 73.06 42.04 73.16 C 57.07 73.12 72.10 73.15 87.12 73.15 C 88.47 73.32 90.57 72.79 90.38 71.03 C 90.49 62.37 90.59 53.68 90.33 45.03 C 90.34 42.76 87.51 43.37 86.06 43.20 C 70.46 43.38 54.84 42.96 39.25 43.40 M 45.85 80.40 C 43.03 80.89 39.11 79.17 37.26 82.03 C 40.06 82.25 42.93 81.91 45.70 82.43 C 47.18 83.30 48.25 84.95 50.02 85.25 C 52.46 85.34 53.53 82.33 55.85 82.21 C 67.64 82.00 79.44 82.43 91.22 82.00 C 90.43 80.89 89.34 80.19 87.94 80.44 C 77.28 80.43 66.61 80.52 55.95 80.43 C 53.55 80.38 52.51 77.08 49.96 77.39 C 48.10 77.45 47.09 79.29 45.85 80.40 Z" />
<path fill="#18acd9" opacity="1.00" d=" M 59.88 51.84 C 63.02 52.01 65.44 54.53 68.20 55.83 C 69.47 56.87 72.21 57.50 71.61 59.61 C 68.44 62.34 64.67 64.42 60.94 66.31 C 58.59 65.65 59.35 62.79 59.07 60.96 C 59.23 57.94 58.50 54.65 59.88 51.84 Z" />
</g>
</svg>
